<svg width="80" height="80" viewBox="0 0 80 80" fill="none" xmlns="http://www.w3.org/2000/svg">
<path d="M20.3549 19.0785C20.4084 14.0646 24.5164 10.0434 29.5303 10.0969L58.7111 10.4084C63.725 10.462 67.7462 14.5699 67.6926 19.5838L67.4848 39.0543C67.4312 44.0682 63.3233 48.0894 58.3094 48.0358L29.1286 47.7243C24.1147 47.6708 20.0935 43.5628 20.1471 38.5489L20.3549 19.0785Z" fill="#E4F9F0"/>
<path d="M1.3907 54.6999C1.00097 53.7678 1.43164 52.6897 2.35261 52.2919L7.68883 49.9873C8.60981 49.5895 9.67233 50.0227 10.0621 50.9549C10.4518 51.887 10.0211 52.9652 9.10014 53.3629L3.76392 55.6675C2.84295 56.0653 1.78042 55.6321 1.3907 54.6999Z" fill="#E4F9F0"/>
<path d="M0.467846 62.1306C0.0781232 61.1984 0.508787 60.1203 1.42976 59.7226L6.76598 57.4179C7.68695 57.0202 8.74948 57.4534 9.1392 58.3856C9.52893 59.3177 9.09826 60.3958 8.17729 60.7936L2.84107 63.0982C1.9201 63.496 0.857568 63.0627 0.467846 62.1306Z" fill="#E4F9F0"/>
<rect x="8.46875" y="32.9121" width="51.1901" height="40.6896" rx="9.81729" transform="rotate(-21.4649 8.46875 32.9121)" fill="#40D193"/>
<path d="M67.3842 50.1107C66.2702 52.7454 64.1412 54.8198 61.4786 55.8651L32.4959 67.2432C29.5881 68.3848 26.3068 68.0405 23.6993 66.3202C23.5282 66.2073 23.4852 65.9748 23.6048 65.8082L36.5399 47.7883C38.6037 44.9132 42.2033 43.5745 45.6443 44.4023L67.1096 49.5664C67.3495 49.6242 67.4804 49.8834 67.3842 50.1107Z" fill="url(#paint0_linear_1153_1220)"/>
<path d="M11.5915 40.4904C10.1112 36.923 11.8463 32.8352 15.4408 31.4218L50.0065 17.8305C53.593 16.4203 57.6386 18.2268 58.9825 21.8387C58.9903 21.8596 58.9891 21.8829 58.9792 21.903L47.4069 45.2927C45.4414 49.2654 40.8038 51.1258 36.6376 49.613L11.6389 40.5357C11.6174 40.5279 11.6003 40.5114 11.5915 40.4904Z" fill="url(#paint1_linear_1153_1220)"/>
<path d="M11.4308 40.4452C9.7949 36.2848 11.8414 31.586 16.0018 29.9501L48.5753 17.1421C52.7357 15.5062 57.4345 17.5528 59.0704 21.7132C59.0818 21.742 59.0784 21.7745 59.0614 21.8004L45.2707 42.8288C43.2476 45.9138 39.4991 47.3877 35.9167 46.5069L11.4968 40.5029C11.4667 40.4955 11.4421 40.474 11.4308 40.4452Z" fill="url(#paint2_linear_1153_1220)"/>
<path d="M25.9392 54.3604C26.0294 53.2726 27.1089 52.5521 28.1481 52.8861C28.6416 53.0447 29.1806 52.9689 29.6112 52.6803C30.518 52.0726 31.7543 52.4674 32.1411 53.4881C32.3248 53.9728 32.7201 54.3469 33.2142 54.5037C34.2547 54.8337 34.7169 56.0465 34.16 56.9853C33.8956 57.4312 33.8495 57.9735 34.0351 58.4575C34.4258 59.4767 33.7658 60.5943 32.6846 60.7442C32.1711 60.8155 31.7184 61.1176 31.4557 61.5644C30.9024 62.5054 29.6172 62.6861 28.8258 61.9343C28.45 61.5773 27.9315 61.4117 27.4183 61.4849C26.3377 61.639 25.395 60.7469 25.4894 59.6594C25.5343 59.143 25.3404 58.6344 24.9633 58.2788C24.169 57.53 24.2788 56.2368 25.1879 55.6325C25.6196 55.3456 25.8963 54.877 25.9392 54.3604Z" fill="url(#paint3_linear_1153_1220)"/>
<path d="M51.5156 46.9424L62.2178 42.3801L62.6741 43.4503L51.9719 48.0126L51.5156 46.9424Z" fill="#B0FFDE"/>
<path d="M52.4277 49.083L63.13 44.5207L63.5862 45.5909L52.884 50.1532L52.4277 49.083Z" fill="#B0FFDE"/>
<defs>
<linearGradient id="paint0_linear_1153_1220" x1="32.7163" y1="24.6293" x2="42.3225" y2="49.0598" gradientUnits="userSpaceOnUse">
<stop stop-color="#2BC282"/>
<stop offset="1" stop-color="#2BC282"/>
</linearGradient>
<linearGradient id="paint1_linear_1153_1220" x1="32.7163" y1="24.6293" x2="42.3225" y2="49.0598" gradientUnits="userSpaceOnUse">
<stop stop-color="#2BC282"/>
<stop offset="1" stop-color="#2BC282"/>
</linearGradient>
<linearGradient id="paint2_linear_1153_1220" x1="19.5212" y1="30.7466" x2="43.9528" y2="37.1454" gradientUnits="userSpaceOnUse">
<stop stop-color="#85EEC1"/>
<stop offset="1" stop-color="#71DDAF"/>
</linearGradient>
<linearGradient id="paint3_linear_1153_1220" x1="25.5106" y1="55.587" x2="34.6454" y2="59.8314" gradientUnits="userSpaceOnUse">
<stop stop-color="#B0FFDE"/>
<stop offset="1" stop-color="#7AE5B7"/>
</linearGradient>
</defs>
</svg>
